<svg xmlns="http://www.w3.org/2000/svg" xmlns:xlink="http://www.w3.org/1999/xlink" width="100" height="56.887" viewBox="0 0 100 56.887">
  <defs>
    <clipPath id="clip-path">
      <rect id="Rectangle_1" data-name="Rectangle 1" width="31.51" height="56.887" fill="none"/>
    </clipPath>
  </defs>
  <g id="Logo" transform="translate(-30 -20)">
    <path id="Tracé_5" data-name="Tracé 5" d="M1.82-12.417h5.8a16.566,16.566,0,0,1,4.006.471,9.167,9.167,0,0,1,3.311,1.525A7.473,7.473,0,0,1,17.186-7.68a9.19,9.19,0,0,1,.831,4.093A8.351,8.351,0,0,1,17.211.171,8.08,8.08,0,0,1,15.041,2.9a9.6,9.6,0,0,1-3.15,1.674,12.234,12.234,0,0,1-3.745.57H1.82ZM5.689,1.572H7.7A10.814,10.814,0,0,0,10.191,1.3a5.327,5.327,0,0,0,2-.905,4.342,4.342,0,0,0,1.327-1.662A5.894,5.894,0,0,0,14-3.786a4.909,4.909,0,0,0-.484-2.245,4.488,4.488,0,0,0-1.3-1.575,5.7,5.7,0,0,0-1.922-.93,8.537,8.537,0,0,0-2.319-.31H5.689ZM27.74,3.631h-.05A3.5,3.5,0,0,1,26.041,5.02a5.67,5.67,0,0,1-2.17.422,5.6,5.6,0,0,1-1.625-.236A4.1,4.1,0,0,1,20.869,4.5a3.414,3.414,0,0,1-.943-1.166,3.561,3.561,0,0,1-.347-1.612A3.7,3.7,0,0,1,19.964-.04a3.44,3.44,0,0,1,1.042-1.191,5.173,5.173,0,0,1,1.5-.732,10.954,10.954,0,0,1,1.749-.384A16.7,16.7,0,0,1,26.066-2.5q.905-.025,1.674-.025A1.935,1.935,0,0,0,27.033-4.1a2.549,2.549,0,0,0-1.674-.583,3.642,3.642,0,0,0-1.674.384A4.574,4.574,0,0,0,22.333-3.24L20.349-5.274a6.828,6.828,0,0,1,2.431-1.451,8.687,8.687,0,0,1,2.877-.484,7.522,7.522,0,0,1,2.691.409,3.914,3.914,0,0,1,1.687,1.2,4.636,4.636,0,0,1,.881,1.947,12.778,12.778,0,0,1,.248,2.666V5.144H27.74Zm-.918-3.77q-.422,0-1.054.037a5.342,5.342,0,0,0-1.215.211,2.7,2.7,0,0,0-.992.521,1.2,1.2,0,0,0-.409.967,1.064,1.064,0,0,0,.57.992,2.387,2.387,0,0,0,1.191.322,3.733,3.733,0,0,0,1.054-.149,3.144,3.144,0,0,0,.905-.422,2.038,2.038,0,0,0,.633-.695A2,2,0,0,0,27.74.654V-.139Zm6.722-6.772h3.721V5.144H33.544Zm-.3-3.8a2.079,2.079,0,0,1,.633-1.525,2.079,2.079,0,0,1,1.525-.633,2.079,2.079,0,0,1,1.525.633,2.079,2.079,0,0,1,.633,1.525A2.079,2.079,0,0,1,36.93-9.18a2.079,2.079,0,0,1-1.525.633,2.079,2.079,0,0,1-1.525-.633A2.079,2.079,0,0,1,33.247-10.706Zm6.747-2.9h3.721V5.144H39.993ZM53.338,7.1q-.372.967-.719,1.711a4.107,4.107,0,0,1-.881,1.253,3.43,3.43,0,0,1-1.352.769,7.309,7.309,0,0,1-2.158.26,8.727,8.727,0,0,1-2.778-.446l.5-3.051a4.26,4.26,0,0,0,1.736.372A3.182,3.182,0,0,0,48.7,7.835a1.689,1.689,0,0,0,.657-.4,2.2,2.2,0,0,0,.434-.633q.174-.372.372-.868l.273-.695L45.153-6.911h4.018l3.1,7.962h.05l2.654-7.962h3.82ZM10.9,21.313a12.944,12.944,0,0,1-.211,2.356,5.275,5.275,0,0,1-.806,2.022,4.194,4.194,0,0,1-1.7,1.414,6.679,6.679,0,0,1-2.89.533,6.054,6.054,0,0,1-3.522-.992,4.686,4.686,0,0,1-1.86-3.1l3.547-.868a1.666,1.666,0,0,0,.583,1.091,1.7,1.7,0,0,0,1.153.446,1.5,1.5,0,0,0,1.042-.335,1.974,1.974,0,0,0,.546-.831,4.03,4.03,0,0,0,.211-1.079q.037-.583.037-1.079V9.631H10.9Zm14.461,5.879H21.787V25.555h-.05a4.119,4.119,0,0,1-.508.695,3.337,3.337,0,0,1-.757.62,4.4,4.4,0,0,1-1.017.446,4.242,4.242,0,0,1-1.24.174,5.207,5.207,0,0,1-2.294-.434,3.283,3.283,0,0,1-1.364-1.2,4.716,4.716,0,0,1-.645-1.811,14.787,14.787,0,0,1-.161-2.257V15.137h3.721v5.9q0,.521.037,1.079a3.4,3.4,0,0,0,.223,1.029,1.6,1.6,0,0,0,1.674,1.067,2.3,2.3,0,0,0,1.166-.26,1.775,1.775,0,0,0,.682-.695,2.839,2.839,0,0,0,.31-.98,8.443,8.443,0,0,0,.074-1.141v-6h3.721Zm2.679-12.055h3.721V27.192H28.038Zm-.3-3.8a2.16,2.16,0,1,1,.633,1.525A2.079,2.079,0,0,1,27.74,11.342ZM42.6,19.031a2.085,2.085,0,0,0-.769-.657,2.261,2.261,0,0,0-1.067-.26,2.844,2.844,0,0,0-2.2.843,3.119,3.119,0,0,0-.781,2.208,3.119,3.119,0,0,0,.781,2.208,2.844,2.844,0,0,0,2.2.843,2.006,2.006,0,0,0,1.067-.273A3.253,3.253,0,0,0,42.6,23.3l2.456,2.58a4.744,4.744,0,0,1-2.046,1.253,7.689,7.689,0,0,1-2.245.36,7.6,7.6,0,0,1-2.617-.446,6.3,6.3,0,0,1-2.133-1.277,6,6,0,0,1-1.426-2,6.772,6.772,0,0,1,0-5.209,6,6,0,0,1,1.426-2,6.3,6.3,0,0,1,2.133-1.277,7.6,7.6,0,0,1,2.617-.446,7.689,7.689,0,0,1,2.245.36,4.744,4.744,0,0,1,2.046,1.253Zm15.2,6.077a5.937,5.937,0,0,1-2.257,1.761,6.761,6.761,0,0,1-2.828.62,7.6,7.6,0,0,1-2.617-.446,6.3,6.3,0,0,1-2.133-1.277,6,6,0,0,1-1.426-2,6.771,6.771,0,0,1,0-5.209,6,6,0,0,1,1.426-2A6.3,6.3,0,0,1,50.1,15.286a7.6,7.6,0,0,1,2.617-.446,5.953,5.953,0,0,1,2.344.446,4.881,4.881,0,0,1,1.786,1.277,5.817,5.817,0,0,1,1.129,2,8.048,8.048,0,0,1,.4,2.6V22.33H49.741a2.945,2.945,0,0,0,.967,1.7,2.737,2.737,0,0,0,1.836.633,2.8,2.8,0,0,0,1.55-.409A4.168,4.168,0,0,0,55.2,23.2ZM54.653,19.8a2.154,2.154,0,0,0-.62-1.612,2.205,2.205,0,0,0-1.662-.67,2.794,2.794,0,0,0-1.091.2,2.735,2.735,0,0,0-.806.508,2.229,2.229,0,0,0-.521.719,2.368,2.368,0,0,0-.211.856Z" transform="translate(71.205 46.55)" fill="#0c0096"/>
    <g id="Groupe_3" data-name="Groupe 3" transform="translate(30 20)">
      <g id="Groupe_2" data-name="Groupe 2">
        <g id="Groupe_1" data-name="Groupe 1" clip-path="url(#clip-path)">
          <path id="Tracé_1" data-name="Tracé 1" d="M25.881,89.8,21.222,61.526a13.815,13.815,0,0,1,10.633.055c5.426,2.462,11.376-2,11.376-2l-.7,28.814Z" transform="translate(-11.722 -32.91)" fill="#fa9000" fill-rule="evenodd"/>
          <path id="Tracé_2" data-name="Tracé 2" d="M16.478,24.677l4.258-.342,4.819-.387-.1,18.462-3.243.261-.79.063ZM11,14.891,7.389,1.705A1.351,1.351,0,1,1,10,1L13.74,14.671l6.179-.5,6.929-.557,2.321-.186a1.355,1.355,0,1,1,.217,2.7l-1.082.087-.034,6.2a1.048,1.048,0,0,1,0,.141l-.114,21.056v.114l-.038,7.148a1.355,1.355,0,0,1-1.246,1.347h0L23,52.532l-9.423.758L9.711,53.6a1.356,1.356,0,0,1-1.445-1.132L7.086,45.418l-.018-.112L3.592,24.54c-.01-.046-.017-.093-.023-.14L2.546,18.29l-1.082.087a1.356,1.356,0,0,1-.218-2.7l2.321-.186,6.929-.556Zm7.681,28.064-5.893.474-3.242.26L6.494,25.48l4.819-.387,2.422-.2Zm3.942,4.17a1.351,1.351,0,0,1-2.607.708l-.606-2.217L13,46.13l-3.012.242.742,4.428,2.628-.213,9.423-.757,2.63-.21.024-4.49-3.012.243-.277.022ZM11.726,17.551l-1.013.082-5.457.439L6.045,22.8l5.051-.406,1.912-.154Zm8.41-.675-5.67.456,1.283,4.684,4.769-.383,5.05-.406.026-4.79Z" transform="translate(0 0)" fill="#0c0096" fill-rule="evenodd"/>
          <path id="Tracé_3" data-name="Tracé 3" d="M35.788,17.123S35.5,13.869,37.4,12.4s4.012.927,2.785,2.254c-1.035,1.121-3.286-.608-4.394,2.468" transform="translate(-19.758 -6.595)" fill="#fa9000" fill-rule="evenodd"/>
          <path id="Tracé_4" data-name="Tracé 4" d="M8.967,21.634s-.958-2.821-3.086-3.345-3,2.255-1.491,2.909c1.279.553,2.519-1.722,4.577.436" transform="translate(-2.005 -10.065)" fill="#fa9000" fill-rule="evenodd"/>
        </g>
      </g>
    </g>
  </g>
</svg>
