<svg xmlns="http://www.w3.org/2000/svg" width="43" height="43.523" viewBox="0 0 43 43.523">
  <g id="fruit" transform="translate(-3.078)">
    <path id="Tracé_11" data-name="Tracé 11" d="M96.205,300.566a1.264,1.264,0,1,0-1.264,1.264A1.286,1.286,0,0,0,96.205,300.566Z" transform="translate(-82.896 -273.859)" fill="#0c0096"/>
    <path id="Tracé_12" data-name="Tracé 12" d="M144.391,299.3a1.264,1.264,0,1,0,1.264,1.264A1.279,1.279,0,0,0,144.391,299.3Z" transform="translate(-128.143 -273.859)" fill="#0c0096"/>
    <path id="Tracé_13" data-name="Tracé 13" d="M120.091,335.378a1.264,1.264,0,1,0,1.264,1.264A1.279,1.279,0,0,0,120.091,335.378Z" transform="translate(-105.908 -306.869)" fill="#0c0096"/>
    <path id="Tracé_14" data-name="Tracé 14" d="M38.765.894,37.871,0,30,7.873A13.383,13.383,0,0,0,22.15,4.736V3.928A3.932,3.932,0,0,0,18.222,0h-2.9V2.529h2.9a1.4,1.4,0,0,1,1.4,1.4v.944A12.773,12.773,0,0,0,9.69,12.783q-.16-.05-.323-.1a18.7,18.7,0,0,0-3.454-.448,18.7,18.7,0,0,0-.81,3.388A7.3,7.3,0,0,0,6.133,20.5h0a6.4,6.4,0,0,0,2.5,2.063,11.073,11.073,0,0,0,7.591,20.476,25.163,25.163,0,0,0,4.909.486A24.972,24.972,0,0,0,38.765.894ZM34.439,7.007A17.623,17.623,0,0,1,24.6,35.827a11.072,11.072,0,0,0-5.438-13.543ZM19.621,7.44V9.405H22.15V7.269a10.792,10.792,0,0,1,6.052,2.4L16.529,21.341a11.059,11.059,0,0,0-2.055-.253c.043-.259.081-.538.108-.832a7.3,7.3,0,0,0-1.032-4.87,5.916,5.916,0,0,0-1.566-1.523A10.243,10.243,0,0,1,19.621,7.44ZM8.216,19.062a5.829,5.829,0,0,1-.462-4.145,5.765,5.765,0,0,1,3.715,1.9,5.829,5.829,0,0,1,.462,4.145A5.764,5.764,0,0,1,8.216,19.062Zm-2.609,13.1a8.556,8.556,0,0,1,7.918-8.522l.247.008.008-.023c.124-.005.247-.009.372-.009a8.545,8.545,0,1,1-8.545,8.545Zm31.37,2.26a22.374,22.374,0,0,1-16.154,6.574A11.17,11.17,0,0,0,23.155,38.6,20.15,20.15,0,0,0,36.231,5.216L37.846,3.6a22.442,22.442,0,0,1-.869,30.817Z" fill="#0c0096"/>
    <path id="Tracé_15" data-name="Tracé 15" d="M243,244.327a1.264,1.264,0,1,0-1.264-1.264A1.279,1.279,0,0,0,243,244.327Z" transform="translate(-218.368 -221.244)" fill="#0c0096"/>
    <path id="Tracé_16" data-name="Tracé 16" d="M289.521,197.8a1.264,1.264,0,1,0-1.264-1.264A1.279,1.279,0,0,0,289.521,197.8Z" transform="translate(-260.936 -178.675)" fill="#0c0096"/>
    <path id="Tracé_17" data-name="Tracé 17" d="M298.772,253.557a1.264,1.264,0,1,0,1.264-1.264A1.286,1.286,0,0,0,298.772,253.557Z" transform="translate(-270.557 -230.847)" fill="#0c0096"/>
  </g>
</svg>
