<svg xmlns="http://www.w3.org/2000/svg" width="25.855" height="54.566" viewBox="0 0 25.855 54.566">
  <path id="juice-squeezing" d="M115.389,17.461a1.154,1.154,0,0,1,1.634-1.629l.175.176a1.154,1.154,0,0,1-1.634,1.629Zm1.2-4.534a1.154,1.154,0,0,0,1.154,1.154h.248a1.154,1.154,0,1,0,0-2.307h-.248A1.153,1.153,0,0,0,116.593,12.927ZM105.3,23.671a1.154,1.154,0,1,0,1.285-1.916A10.62,10.62,0,1,1,118.015,22a1.154,1.154,0,1,0,1.2,1.969,12.928,12.928,0,1,0-13.923-.294Zm10.27-15.454-.175.176a1.154,1.154,0,0,0,1.633,1.629l.175-.176a1.154,1.154,0,1,0-1.633-1.629Zm-2.974,3.556h-.21a1.154,1.154,0,1,0,0,2.307h.21a1.154,1.154,0,1,0,0-2.307Zm10.957,18.885a1.153,1.153,0,0,1,.277.91l-2.863,21.992a1.154,1.154,0,0,1-1.144,1H105.156a1.153,1.153,0,0,1-1.144-1l-2.864-21.992a1.154,1.154,0,0,1,1.144-1.3h5.268c.493-1.243,1.358-3.09,2.669-5.815.533-1.108.994-2.065,1.2-2.541a1.153,1.153,0,0,1,2.122,0c.2.475.662,1.431,1.195,2.537,1.312,2.727,2.178,4.575,2.671,5.819h5.268A1.154,1.154,0,0,1,123.548,30.659Zm-14.195,1.475a3.133,3.133,0,0,0,6.266,0,1.962,1.962,0,0,0-.063-.25,1.152,1.152,0,0,1-.067-.2c-.47-1.336-2.023-4.565-2.826-6.233l-.177-.367-.178.371c-.8,1.666-2.353,4.89-2.823,6.227a1.145,1.145,0,0,1-.069.207A1.951,1.951,0,0,0,109.353,32.134Zm12.014.439h-3.462a5.44,5.44,0,0,1-10.84,0h-3.461l1.348,10.352a5.274,5.274,0,0,0,5.081-.3,8.038,8.038,0,0,1,5.716-1.122,1.154,1.154,0,1,1-.437,2.265,5.7,5.7,0,0,0-3.994.773,8.012,8.012,0,0,1-6.027.992l.876,6.728H118.8Zm-8.881-15.539a1.154,1.154,0,0,0-1.154,1.154v.249a1.154,1.154,0,0,0,2.307,0v-.249A1.153,1.153,0,0,0,112.486,17.034Zm-2.9-8.641-.175-.176a1.154,1.154,0,1,0-1.633,1.63l.175.176a1.154,1.154,0,1,0,1.633-1.63Zm-1.2,4.534a1.154,1.154,0,0,0-1.154-1.154h-.248a1.154,1.154,0,0,0,0,2.307h.248A1.154,1.154,0,0,0,108.38,12.927Zm4.107-4.107a1.154,1.154,0,0,0,1.154-1.154V7.419a1.154,1.154,0,0,0-2.307,0v.248A1.154,1.154,0,0,0,112.486,8.821Zm-3.895,9.155a1.149,1.149,0,0,0,.816-.339l.175-.176a1.154,1.154,0,1,0-1.633-1.63l-.175.176a1.154,1.154,0,0,0,.816,1.968Z" transform="translate(-99.559)" fill="#0c0096"/>
</svg>
