<svg xmlns="http://www.w3.org/2000/svg" width="43" height="43" viewBox="0 0 43 43">
  <g id="orchard" transform="translate(0 -0.001)">
    <path id="Tracé_7" data-name="Tracé 7" d="M41.74,30.4H39.55a6.677,6.677,0,0,0-6.6-5.751h-.614V22.255l4.031-2.33A1.26,1.26,0,1,0,35.1,17.744l-2.77,1.6V16.137a7.072,7.072,0,0,0,5.8-6.947V7.334a1.26,1.26,0,0,0-1.26-1.26,7.034,7.034,0,0,0-2.141.333C35.1,3.414,32.032.325,31.9.313a1.26,1.26,0,0,0-1.66,0c-.143.035-3.192,3.087-2.83,6.1a7.035,7.035,0,0,0-2.144-.334,1.26,1.26,0,0,0-1.26,1.26V9.19a7.072,7.072,0,0,0,5.8,6.947V24.65H29.2A6.677,6.677,0,0,0,22.6,30.4H20.424a6.5,6.5,0,0,0-2.69-4.545A7.056,7.056,0,0,0,20.7,20.107V15.991a1.26,1.26,0,0,0-1.26-1.26H17.729a7.058,7.058,0,0,0-5.8,3.043,7.058,7.058,0,0,0-5.8-3.043H4.412a1.26,1.26,0,0,0-1.26,1.26v4.116A7.058,7.058,0,0,0,6.177,25.9,6.672,6.672,0,0,0,3.45,30.4H1.26A1.26,1.26,0,0,0,0,31.661v10.08A1.26,1.26,0,0,0,1.26,43H41.74A1.26,1.26,0,0,0,43,41.741V31.661a1.26,1.26,0,0,0-1.26-1.26ZM35.615,9.19a4.551,4.551,0,0,1-3.283,4.365v-.418a4.551,4.551,0,0,1,3.283-4.365ZM31.074,3.127a4.152,4.152,0,0,1,0,5.728A4.152,4.152,0,0,1,31.074,3.127ZM26.53,9.19V8.772a4.551,4.551,0,0,1,3.283,4.365v.418A4.551,4.551,0,0,1,26.53,9.19ZM29.2,27.169h3.748A4.155,4.155,0,0,1,36.993,30.4H25.152A4.155,4.155,0,0,1,29.2,27.169ZM17.729,17.251h.453v2.856A4.548,4.548,0,0,1,13.64,24.65h-.453V21.793a4.548,4.548,0,0,1,4.542-4.542Zm-12.058,0h.453a4.548,4.548,0,0,1,4.542,4.542V24.65h-.453a4.548,4.548,0,0,1-4.542-4.542Zm4.381,9.918h3.916A3.987,3.987,0,0,1,17.879,30.4H6.007A4.155,4.155,0,0,1,10.053,27.169ZM40.48,40.481H2.519V32.92H40.48Z" transform="translate(0 0)" fill="#0c0096"/>
    <path id="Tracé_8" data-name="Tracé 8" d="M61.26,421.985a1.26,1.26,0,1,0,1.26,1.26A1.26,1.26,0,0,0,61.26,421.985Z" transform="translate(-54.961 -386.544)" fill="#0c0096"/>
    <path id="Tracé_9" data-name="Tracé 9" d="M423.26,421.985a1.26,1.26,0,1,0,1.26,1.26A1.26,1.26,0,0,0,423.26,421.985Z" transform="translate(-386.559 -386.544)" fill="#0c0096"/>
  </g>
</svg>
