<svg version="1" xmlns="http://www.w3.org/2000/svg" width="666.667" height="433.032" viewBox="0 0 500 324.8"><path d="M450.5 7.2c-.4.9-1.4 2.3-2.2 3.1l-1.3 1.5 1 .8 1 .7.7-.6 1.6-2 1-1.2h1.8c1.4 0 1.9 0 1.9.3 0 .4-.8 2-1 2l-1.4-.7-1.3-.7-.7.8-.7 1 1.3 1 1.2.7-.5.7-2.4 1.5-1.8 1 .7 1 .8 1c.2.3 3.1-1.5 4.3-2.5 1.7-1.6 2.8-3.3 4-6 .8-2.4.8-2.4.3-2.9-.5-.4-1-.5-3-.4h-2.4l.2-.6c.2-.6 0-.7-.7-.9-1.5-.3-1.6-.2-2.4 1.4zM48.4 7c-1.1 1.3-4.5 3.5-7 4.5l-2.1.8 1.2 2.3 2.2-.9 2.3-1 .1 3.1v3.1H48v-8l1.9-1.7 1.8-1.8-1-.7c-.7-.4-1.2-.8-1.3-.7l-1 1zM148.4 7v1.2h-6.8v2.5h2.4c1.7 0 2.4 0 2.4.2 0 .5-3 3.1-4.3 3.8l-1.3.8.8 1.1.9 1 1-.5c.6-.3 2-1.4 3-2.5l2-1.8v6.1h2.6v-8.3h2.8l.1-1.2V8.2h-3V5.9h-2.7v1.2zM185 6.2v.6c0 .2-1.5.3-4.7.3h-4.8v2.5h4.2c3.2 0 4.3 0 4.3.3 0 .8-1.7 3.3-2.9 4.3-.7.6-1.9 1.4-2.7 1.8l-1.4.7.8 1.2.9 1.3 1.4-.8c4.6-2.4 8-8.7 6.5-11.7-.4-.8-1.3-1-1.6-.5zM245.4 6.1l-.2 1.5v1.2l-1.3-.1-1.2-.2V11h2.5v3.1h2.5V11h3.2l-.1 1.5c-.3 1.9-.9 2.7-2.7 3.6l-1.5.8.8 1.2.9 1 1-.6c2.3-1 3.6-3 4-6l.2-1.5h2.4V8.6h-1.2l-1.3.2V6.6l.4 1c.4.9 1.3 1 1.3 0s-.5-1.2-2.4-1.3l-1.9-.2v2.7l-1.4-.1-1.5-.1-.1-1.4V6h-1.2l-1.2.2zM7 7.3v1.2h9.4V6.2H7v1.1zM319.8 7.8c-1.2 3.3-3.8 6.1-6.7 7.6l-1.5.7.8 1.3.9 1.2 1-.5c3.7-2 6.4-5.2 8.2-9.6L323 7l-1.3-.4-1.4-.5-.6 1.6zM74.5 8v1.3h3c1.6 0 3 .1 3 .2l-.9 1.5c-1 1.7-3.3 3.8-5 4.6-1.6.8-1.7.9-.4 2.4l.5.7 1.4-.8c.7-.4 1.9-1.3 2.5-1.9.6-.6 1.3-1 1.4-1 .2 0 1.1.8 2.2 1.8l1.9 2 1-1 1-1-1.4-1.4c-1-1-2.2-2-3.1-2.6l.5-1 1.2-2 .5-1.3-.6-1-.6-.8-4 .1h-4.1v1.3zM380.4 8v1.3h3c1.6 0 2.9.1 2.9.2l-.8 1.5c-1.1 1.7-3.3 3.8-5.1 4.6l-1.5.8.8 1 .9 1.2c.1.2 2.8-1.6 4-2.7l1.4-1.3 2 2 2 2 1-1 1-1-1.2-1.2-2.2-2-1-.6 1.3-2.4c1.2-2.4 1.2-2.5.7-3-.5-.6-.9-.6-5-.6h-4.2V8zM414.2 7.4c0 1.9.1 2 3.3 2h3l-.7 1c-1 1.8-3.5 4.3-5.2 5.1-.8.4-1.5.8-1.5 1l.7 1.1.8 1 1-.5 2.7-1.9L420 15l2 1.8 2 2 1-1 1-1-1.6-1.6-2.3-2-.6-.4 1.2-2.4 1.3-2.4-.7-.6c-.6-.6-1-.6-4.9-.6-4.2 0-4.3 0-4.3.6zM6 11v1.1h4.2c2.3 0 4.2.1 4.2.3l-.7 1.2c-.7 1.1-2.4 2.3-3.9 2.8-.6.1-1 .3-1 .4l.7 1.3c.6 1 .8 1 1.4.8 2.5-1 4.6-2.8 5.7-5 1.2-2.4 1.3-2.9.7-3.5-.4-.5-.9-.5-6-.5H6V11zM112.3 10.7c-1.2 1.2-1 2.6.4 3.6 1.4.8 3.3-.3 3.3-1.9 0-1.9-2.4-3-3.7-1.7zM214 10.9c-.4.3-.7 1-.7 1.4 0 .8 1.4 2.4 2.1 2.4 1.3 0 2.4-1.2 2.4-2.6 0-.9-1.2-2-2.2-2-.6 0-1.2.3-1.6.8zM282 10.9c-1.3 1.2-.6 3.2 1.2 3.7 1.3.3 2.9-1.3 2.5-2.6-.4-1.8-2.4-2.4-3.7-1.1zM345 12.3v1.4H358l.1-1.4.1-1.3h-13v1.3zM480.9 12.3v1.4h12.9V11h-13v1.3zM117.4 24.7c-7.2.7-12.3 3-16.3 7.3-4 4.2-5.4 8.6-6 18.4-.8 11.4 1 20.8 5 26.5 2 3 4.9 5.6 13.2 12.5 5.3 4.4 9.8 8.8 10.5 10.2 1.7 3.3 2.3 13.3 1 17.2-.6 2-1.7 3.1-3.1 3.1-1.5 0-2.5-.8-3-2.3-.1-.8-.3-4.4-.4-11.1-.1-7.2-.2-10-.5-10h-11.1l-10.9.1v8.6c0 12.3.9 17.9 3.4 23.1 2.9 5.8 9 10.4 16 12 3.3.7 9 .8 12.3.1 7-1.3 13-5 16.6-9.9 3.4-4.8 4.5-10.3 4.5-22.4 0-13.6-1.6-20.6-5.7-26.3-2.8-3.8-9.1-9.5-16.6-15.1-4-2.9-6.3-5.2-7.2-6.8-1.3-2.5-1.7-9.7-.8-12.8.7-2.4 2.2-3.5 4-2.8 1.4.5 1.7 1.7 1.8 9.3l.2 7H146.6V56c.2-7.6-.5-14.8-1.8-18.4-3.2-8.5-15.2-14.1-27.4-12.9zM243.3 24.9c-5.7.6-10.7 2.8-14.4 6.3-3.2 2.9-5.9 7.5-7.3 12.4-1.2 4.3-1.3 6-1.4 34.1-.2 32 0 37.5 1.7 43 1.2 3.8 3.8 8.5 6.3 11.1 8.2 8.8 24.6 10 35 2.7 4.9-3.5 8.7-10 10.1-17.2.8-4.2 1-13.4.9-40.3-.2-27.2-.2-28.5-1.4-33.1-.7-2.9-3.2-8-5-10.2-5.4-6.7-14.6-10-24.5-8.8zm5 19.4c.4.2.8.8 1 1.4.5 1 .6 3.8.6 33 .1 33.5 0 37.9-1 39.2-.7 1-1.9 1.4-2.8.9-1.7-1-1.6.3-1.7-35.6 0-33.3 0-36.5 1-38 .7-1 2-1.4 3-.9zM4.4 27.1l-.1 58v57.5h2c3 0 18.7-.7 20.5-1l1.6-.1.1-26.7.1-26.6h1.1c1.3.2 2.4.7 3 1.4 1.2 1.2 1.2 3 1.4 27.6 0 20.6.1 24 .5 24 .6.3 21.6-.7 22-1v-23.8c0-26 0-25.3-1.8-29-1.8-3.5-3.3-5-6.3-6.7-1.6-.8-2.1-1.4-1.3-1.4l2.4-1c4.4-2.2 6-5.6 6.9-14.3.4-5 .1-14.5-.6-18.6-1.4-8-4.8-13.3-10-16-4-1.9-8.4-2.3-26.8-2.5-12.3-.2-14.6-.1-14.7.2zm27.5 20.2c1.9 1 2.4 3.9 2.2 12-.2 6.5-.5 8.2-1.7 9-.7.5-3.4 1.2-3.8.9l-.1-11.4V46.5l1.3.2c.8.1 1.7.4 2.1.6zM64.3 27c-.4.3-.3 112.9 0 113 .3.3 18.5-.2 21.8-.6l2-.2V27H76.4l-12 .1zM154 27.2c-.1.3-.2 15-.2 55.4l.1 55 16-.1c8.7 0 18-.2 20.5-.3l4.6-.1V113.4H178.3v-11.3l.2-11.4h7l7-.1-.1-11-.1-10.9h-7l-7-.1V49.7l7.6-.1h7.5l.1-11c0-8 0-11.1-.2-11.4-.5-.6-38.7-.6-39.2 0zM281 27c-.2 0-.2 24.9-.2 55v54.8l.6.2H305l.1-23.1.2-23.2h7l7-.1-.1-11-.1-10.9h-7l-7-.1v-9.4l.2-9.4 7.7-.1 7.8-.2V27h-19.8l-20 .1zM340.2 27.2c-.1.1-.2 5.3-.1 11.3v11l6.7.1h6.8v44.2l.1 44 5.5.2 12 .3 6.5.1.1-44.3.2-44.3h6.6c4.9-.1 6.7-.3 6.8-.5.4-.6.3-21.7 0-22.1-.5-.6-51-.6-51.2 0zM397 27.1c-.4.5-.4 111.2.1 111.6.4.4 23.6 1.1 23.8.8.2 0 .3-11 .3-24.3v-24H426.6l.1 24.3.2 24.3.8.1 11.9.5c8.5.3 11 .3 11.2 0 .3-.4.3-112.8 0-113.3-.2-.2-2.8-.3-12-.2h-12v19.2l-.2 19.2-2.6.1h-2.6v-19c0-14.3-.1-19-.4-19.3-.4-.4-23.4-.4-23.8 0zM456.5 27c-.1 0-.2 25.7-.2 56.8 0 45 0 56.7.3 57 .2 0 3.9.4 8.1.6l19.2.8c7.6.3 11.6.4 11.8.2.5-.4.5-25.6 0-26-.2-.3-2.3-.4-7.4-.4-3.9 0-7.2-.1-7.4-.3-.3-.2-.4-2.8-.3-12V91.8l7.1-.1 7-.1.2-11.2c0-8.7 0-11.1-.3-11.3-.2-.1-3.5-.3-7.2-.3h-6.9v-9.5l.2-9.5h7.5l7.6-.1V38.3l-.2-11.4h-19.5l-19.6.1zM302 142c-9.1 1.5-15.3 6.9-17.5 15-1 3.7-1.3 6.9-1.4 14-.2 10.4.6 16.2 3.2 22.3 1.8 4.2 3 5.8 12.4 15.2 4.8 4.9 9.5 10 10.5 11.3 2 2.7 2.7 4.6 3.2 9 .4 4.4.2 13-.5 15-1 2.8-3.4 4.1-5.4 2.8-2.3-1.6-2.6-3.2-2.6-16.6v-10h-1.2l-10-.3c-4.7-.2-8.8-.3-9-.2v8.9c.4 19.2 2.2 26 8.7 32.7 3.7 3.8 7.2 5.8 12.4 7.1 3.7 1 9.3 1 12.7.2 5-1.4 9.5-4.7 12.2-9.3 2-3 2.8-7.2 3.4-14.9.5-6.9.5-11.6 0-18.7-.8-11-2.3-16.5-5.8-21.7-3.3-4.9-9.5-11.6-16.8-18-5-4.3-6.2-6.2-6.9-11-.4-3-.2-8.8.4-10.8 1.5-4.6 6.2-4.5 7 .1l.2 8v6.7l5.6.2c3 0 7.6.3 10.2.4l4.5.1v-4.7c0-9.1-.7-16.4-2-19.8-2-5.5-7-9.8-13.5-11.9-4-1.3-10-1.7-14-1zM233.3 143.8l-7.8.1v120l8.6-.2 10.9-.3 2.2-.2V237l.1-26h7.1v26l.1 26.3h.7c.3.2 5.2.3 10.8.4l10.2.2v-120H267l-10.8-.1h-1.6v41H251l-3.6-.1V164l-.1-20.5h-3l-10.9.2zM184.4 144.2c-7 .1-13 .3-13.3.4-.4.1-.4 2-.3 11.4v11.2l4.4-.1 6.6-.2 2.2-.2v50.1c0 45.5 0 50.1.4 50.1.3 0 1.6 0 3-.2 3.2-.4 7.8-.8 13-1.2l4.7-.4.9-.2v-98.4h4.2c2.4 0 4.4-.1 4.5-.2h2.4l2.1-.1V143.9h-10.9l-23.9.3zM83.4 144.4c-12.6 1.1-21.2 11.4-23 27.6-.6 5.4-1 28-.7 55.6.2 33.9.3 37.4 2.3 44.8 2 7.6 4.8 12.7 8.7 15.6 5.7 4.3 13.5 3.8 21.5-1.4 8.9-5.7 15.4-17.9 17.4-32.2.8-6 1-14 1-46 0-30.6-.1-36.4-.9-41.6-1-7.2-4.6-14-9.4-17.8-4.3-3.5-10.5-5.2-17-4.6zm4.5 21.8c.2.5.6 2 .7 3.2.4 3 .4 79.6 0 85.2-.3 4.7-.8 6.5-2 7.8-1 1-1.7 1.1-2.9.8-1-.4-1.6-1.5-2-4.4-.4-3.1-.3-85 .2-88.8.2-2.7 1-4.4 2-5 1.6-.7 3.3-.2 4 1.2zM337.5 156v11.6h4.2l6.5.2 2.4.2.1 51.8.2 51.8 3 .5 9.7 1.7 7.7 1.5 1.2.2v-53.2c0-35 0-53.3.2-53.4.2-.1 2.4 0 5 .1l6.4.4h1.6v-11.7c0-6.5 0-11.8-.2-11.8l-.9-.2-9-.2-19.2-.5-15-.3h-4V156zM121.8 145.6l-5.1.1-.1 66.3c0 57 0 66.2.3 66.2l2-.4 10-2.1 9-1.9.6-.1.1-30.8V212h.9c1.6-.2 3.3.2 4.3 1 2 1.8 2.2 5.7 2 35.6-.3 23.4-.3 24 .3 23.9 1-.3 11.4-2 17.1-2.8l2.6-.4v-26.5c0-25 0-26.6-.6-28.5-1.6-6-4.4-9.5-9.3-11.3-1.2-.4-2.1-.8-2.1-1l2.5-.9c4-1.3 6.7-3.8 7.9-7.5 1.3-4.1 1.5-6.8 1.5-17.1 0-8.8 0-10-.6-13.2-1-5.6-2.2-8.7-4.7-12-2.2-3-4.5-4.3-8.4-5.2-2.3-.5-3.8-.6-13.9-.6h-16.3zm21.1 20c2.3 1.1 3 3.8 3 12.2 0 6.4-.6 11.1-1.4 12.5-.7 1-2.5 2-4.6 2.3l-1.4.2v-13.9c0-12.9 0-13.8.6-14 .7-.1 2.6.2 3.8.8zM395.3 146.9l-.3 3.6-3 33.9-.6 6.2-.7 7.9-.9 9.7-3 35.7-2 26.3-.5 6.5v1.5l1.7.3 11 2.7c5.2 1.2 9.6 2.2 9.7 2.1 0 0 .3-3.8.4-8.3l.5-9.3.3-5.3.2-4.2h.7l3 .6 3.4.7 1.2.2.2 2.7.5 10.6.5 11.8.2 4 1.2.3 4.1 1.3 7 2.1 7 2.2 2.9 1-.2-2.6-1.4-20-.8-9.7-.5-7-1.5-17.1c-1.7-21.8-3.8-45-5.1-57.8l-.9-8.6-.8-8.7-.9-8.6-.6-5.4-.1-.9-2.6-.1-23.7-1-5.6-.1v.8zm17.2 27.5l1.2 20.7c.4 8.7 1 19.2 1.4 23.3.6 9 .8 13 .7 13.2-.1.1-2-.1-7.2-1l-1-.1.3-3c.9-14.5 2.2-32.7 3-42.4 1-9.2 1.2-11 1.4-11l.2.3zM45.7 148.4l-7 .5-2.9.1v21c0 22.5-.2 41-.5 40.6-.1-.1-.6-2.2-1-4.5-1.4-7.5-6.8-34.7-9.2-45.7L23 149.6h-2.4l-7.2.5-6.8.5-1.8.1-.1 37.6-.3 83.3-.2 45.8 7.3-3.3 9-4.2 2-.8.2-40.6c0-27.4.2-40.6.4-40.7.2 0 .4 1 .7 2.5l.6 4c3.1 19.9 7.2 47.6 9.9 67l.4 2.5s2.5-.8 5.5-2l7.7-3 4.1-1.5 1.9-.7v-74.2l.1-74.3h-2l-6.2.3zM446.4 222l.1 74 3.4 1.3c1.9.6 5 1.7 6.8 2.5l6.6 2.4c1.8.6 3.6 1.4 4 1.6l.8.3v-1.7c.2-1 .2-18.5 0-39V226h.8c1.9 0 4.7 2 5.4 3.8 1 2.6 1 3.7 1.1 40.8l.2 36.7 1.3.5 17.4 7.8 1.5.7v-35c0-35-.2-41.9-1-46-.6-2.7-2-6.7-3-9-1.2-2.4-3.8-5.3-6.2-7l-2-1.5s.8-.3 1.8-.4c2.2-.2 5-1.5 6.1-2.9 3.1-3.7 4.1-10.3 4.1-26.3 0-10.2-.3-14.3-1.4-19.7-1-5.1-3.2-10-6-13.3-1.2-1.4-3.5-3-5.5-3.7-3.7-1.2-12.2-2.3-22.7-2.8l-9.7-.5-4-.1.1 74zm25.7-50c1.6.8 2.6 2.5 3 5.3.5 2.3.3 20.7-.2 22.3-.3 1.4-1.1 2.5-2.2 3-1 .5-3.2.7-4 .3l-.6-.3V187c0-8.6 0-15.7.2-15.8.2-.2 3 .4 3.8.8z"/></svg>